<?xml version="1.0" encoding="UTF-8"?>
<!DOCTYPE svg PUBLIC "-//W3C//DTD SVG 1.1//EN" "http://www.w3.org/Graphics/SVG/1.1/DTD/svg11.dtd">
<svg xmlns="http://www.w3.org/2000/svg" version="1.1" width="225px" height="225px" style="shape-rendering:geometricPrecision; text-rendering:geometricPrecision; image-rendering:optimizeQuality; fill-rule:evenodd; clip-rule:evenodd" xmlns:xlink="http://www.w3.org/1999/xlink">
<g><path style="opacity:1" fill="#fefdfd" d="M -0.5,-0.5 C 74.5,-0.5 149.5,-0.5 224.5,-0.5C 224.5,74.5 224.5,149.5 224.5,224.5C 149.5,224.5 74.5,224.5 -0.5,224.5C -0.5,149.5 -0.5,74.5 -0.5,-0.5 Z"/></g>
<g><path style="opacity:1" fill="#e4292d" d="M 110.5,57.5 C 109.517,72.7554 109.183,88.0888 109.5,103.5C 102.499,95.8294 93.8325,90.9961 83.5,89C 67.1069,88.9493 50.7735,88.116 34.5,86.5C 34.5,72.1667 34.5,57.8333 34.5,43.5C 51.7945,44.9578 69.1278,46.1245 86.5,47C 95.6377,48.0726 103.638,51.5726 110.5,57.5 Z"/></g>
<g><path style="opacity:1" fill="#b72124" d="M 109.5,103.5 C 109.183,88.0888 109.517,72.7554 110.5,57.5C 116.579,51.6293 123.912,48.1293 132.5,47C 149.538,46.0621 166.538,44.8955 183.5,43.5C 184.499,57.8179 184.833,72.1512 184.5,86.5C 166.836,87.7977 149.169,88.9644 131.5,90C 122.989,92.8453 115.822,97.6787 110,104.5C 109.601,104.272 109.435,103.938 109.5,103.5 Z"/></g>
<g><path style="opacity:1" fill="#616262" d="M 184.5,124.5 C 183.205,133.128 178.538,139.128 170.5,142.5C 162.11,137.981 153.11,135.148 143.5,134C 135.32,131.803 128.82,127.303 124,120.5C 122.627,118.305 122.294,115.971 123,113.5C 133.489,103.45 145.989,99.6169 160.5,102C 173.894,103.898 181.894,111.398 184.5,124.5 Z"/></g>
<g><path style="opacity:1" fill="#606161" d="M 61.5,103.5 C 78.3585,101.067 91.8585,106.733 102,120.5C 102.667,122.5 103.333,124.5 104,126.5C 104.5,147.164 104.667,167.831 104.5,188.5C 91.1667,188.5 77.8333,188.5 64.5,188.5C 64.6666,161.498 64.5,134.498 64,107.5C 63.3918,105.934 62.5585,104.6 61.5,103.5 Z"/></g>
<g><path style="opacity:1" fill="#898a89" d="M 184.5,124.5 C 185.662,142.329 185.829,160.329 185,178.5C 179.475,185.14 172.309,188.973 163.5,190C 154.126,190.776 144.793,190.442 135.5,189C 129.703,187.903 124.369,185.736 119.5,182.5C 118.334,166.51 118.167,150.51 119,134.5C 133.5,147.584 150,151.084 168.5,145C 169.756,144.583 170.423,143.75 170.5,142.5C 178.538,139.128 183.205,133.128 184.5,124.5 Z"/></g>
</svg>
